<?xml version="1.0" encoding="UTF-8"?><svg id="a" xmlns="http://www.w3.org/2000/svg" viewBox="0 0 352.55 114.2"><defs><style>.b{fill:#fff;}</style></defs><g><path class="b" d="M76.33,72.04c0,19.82-13.31,34.44-31.83,34.44-9.26,0-16.35-3.76-20.98-9.69v5.06c0,2.17-1.3,3.47-3.47,3.47H11.5c-2.17,0-3.47-1.3-3.47-3.47V14.74c0-2.17,1.3-3.47,3.47-3.47h8.54c2.17,0,3.47,1.3,3.47,3.47V47.45c4.63-6.08,11.72-9.7,20.98-9.7,18.52,0,31.83,14.18,31.83,34.3Zm-15.05,0c0-11.43-7.53-19.68-18.96-19.68s-18.81,8.25-18.81,19.68,7.38,19.82,18.81,19.82,18.96-8.39,18.96-19.82Z"/><path class="b" d="M144.78,38.76h8.54c2.17,0,3.47,1.3,3.47,3.47v59.62c0,2.17-1.3,3.47-3.47,3.47h-8.54c-2.17,0-3.47-1.3-3.47-3.47v-5.06c-4.63,5.93-11.72,9.69-20.98,9.69-18.52,0-31.98-14.61-31.98-34.44s13.46-34.3,31.98-34.3c9.26,0,16.35,3.62,20.98,9.7v-5.21c0-2.17,1.3-3.47,3.47-3.47Zm-3.47,33.28c0-11.43-7.38-19.68-18.81-19.68s-18.96,8.25-18.96,19.68,7.52,19.82,18.96,19.82,18.81-8.39,18.81-19.82Z"/><path class="b" d="M208.89,38.04c2.32-.29,3.62,1.01,3.62,3.33v7.67c0,2.17-1.16,3.33-3.33,3.47-8.25,.87-20.11,4.77-20.11,20.55v28.8c0,2.17-1.3,3.47-3.47,3.47h-8.54c-2.17,0-3.47-1.3-3.47-3.47V42.24c0-2.17,1.3-3.47,3.47-3.47h8.54c2.17,0,3.47,1.3,3.47,3.47v8.54c4.77-7.96,12.16-11.72,19.82-12.74Z"/><path class="b" d="M236.96,105.33h-8.54c-2.17,0-3.47-1.3-3.47-3.47V14.74c0-2.17,1.3-3.47,3.47-3.47h8.68c2.17,0,3.47,1.3,3.47,3.47l-.14,87.11c0,2.17-1.3,3.47-3.47,3.47Z"/><path class="b" d="M254.76,72.04c0-20.11,14.18-34.58,34.29-34.58s34.15,14.47,34.15,34.58-14.04,34.59-34.15,34.59-34.29-14.76-34.29-34.59Zm52.96,0c0-11.29-7.38-19.68-18.67-19.68s-18.81,8.39-18.81,19.68,7.53,19.82,18.81,19.82,18.67-8.54,18.67-19.82Z"/></g><circle class="b" cx="288.67" cy="22.49" r="8.52"/><circle class="b" cx="338.2" cy="72.25" r="8.52"/><circle class="b" cx="331.6" cy="47.41" r="8.52"/><circle class="b" cx="313.47" cy="29.2" r="8.52"/></svg>