<?xml version="1.0" encoding="UTF-8"?><svg id="a" xmlns="http://www.w3.org/2000/svg" viewBox="0 0 65 65"><defs><style>.b{fill:#231f20;}</style></defs><path class="b" d="M55.43,19.45H24.87c-2.71,0-4.92,2.21-4.92,4.92v30.63c0,2.71,2.21,4.92,4.92,4.92h30.56c2.71,0,4.92-2.21,4.92-4.92V24.37c0-2.71-2.21-4.92-4.92-4.92Zm-30.93,4.92c0-.2,.16-.36,.36-.36h30.56c.2,0,.36,.16,.36,.36v30.63c0,.2-.16,.36-.36,.36H24.87c-.2,0-.36-.16-.36-.36V24.37Z"/><path class="b" d="M14.92,41.84h-5.21c-.28,0-.51-.23-.51-.52V11c0-.28,.23-.52,.51-.52h30.27c.28,0,.51,.23,.51,.52v4.69c0,1.26,1.02,2.28,2.28,2.28s2.28-1.02,2.28-2.28v-4.69c0-2.8-2.27-5.07-5.06-5.07H9.72c-2.79,0-5.06,2.27-5.06,5.07v30.33c0,2.8,2.27,5.07,5.06,5.07h5.21c1.26,0,2.28-1.02,2.28-2.28s-1.02-2.28-2.28-2.28Z"/></svg>