<?xml version="1.0" encoding="UTF-8"?><svg id="a" xmlns="http://www.w3.org/2000/svg" viewBox="0 0 65 65"><defs><style>.b{fill:#231f20;}</style></defs><path class="b" d="M32.5,1.26C18.36,1.26,6.85,12.86,6.85,27.12c0,8.09,4.26,16.9,12.31,25.48,5.93,6.32,11.84,10.33,12.09,10.49,.37,.25,.8,.38,1.25,.38s.88-.13,1.25-.38c.25-.17,6.16-4.18,12.09-10.49,8.06-8.58,12.31-17.39,12.31-25.48,0-14.26-11.51-25.85-25.65-25.85Zm21.18,25.85c0,14.6-16.56,27.93-21.18,31.37-4.62-3.43-21.18-16.75-21.18-31.37,0-11.79,9.5-21.39,21.18-21.39s21.18,9.59,21.18,21.39Z"/><path class="b" d="M32.5,17.01c-5.54,0-10.04,4.53-10.04,10.11s4.5,10.11,10.04,10.11,10.04-4.53,10.04-10.11-4.5-10.11-10.04-10.11Zm5.57,10.11c0,3.11-2.5,5.64-5.57,5.64s-5.57-2.53-5.57-5.64,2.5-5.64,5.57-5.64,5.57,2.53,5.57,5.64Z"/></svg>