<?xml version="1.0" encoding="UTF-8"?><svg id="a" xmlns="http://www.w3.org/2000/svg" viewBox="0 0 65 65"><defs><style>.b{fill:#231f20;}</style></defs><path class="b" d="M53.09,45.7h0c-2.43,0-4.4-1.97-4.4-4.4V24.07c0-9.59-7.52-17.69-17.1-17.96-9.95-.27-18.09,7.71-18.09,17.59v17.6c0,2.43-1.97,4.4-4.4,4.4h0c-1.21,0-2.2,.98-2.2,2.2h0c0,1.21,.98,2.2,2.2,2.2h13.2c0,4.86,3.94,8.8,8.8,8.8s8.8-3.94,8.8-8.8h13.2c1.21,0,2.2-.98,2.2-2.2h0c0-1.21-.98-2.2-2.2-2.2h0Zm-22,8.8c-2.43,0-4.4-1.97-4.4-4.4h8.8c0,2.43-1.97,4.4-4.4,4.4Zm-14.42-8.8c.76-1.3,1.22-2.79,1.22-4.4V23.7c0-7.29,5.91-13.2,13.2-13.2s13.2,5.91,13.2,13.2v17.6h0c0,1.61,.47,3.1,1.22,4.4H16.68Z"/></svg>