<?xml version="1.0" encoding="UTF-8"?><svg id="a" xmlns="http://www.w3.org/2000/svg" viewBox="0 0 65 65"><defs><style>.d{fill:#231f20;}</style></defs><g id="b"><path class="d" d="M42.23,28.45c-.87-.87-2.29-.87-3.16,0l-6.57,6.57-6.57-6.57c-.87-.87-2.29-.87-3.16,0-.87,.87-.87,2.29,0,3.16l6.57,6.57-6.57,6.57c-.87,.87-.87,2.29,0,3.16,.44,.44,1.01,.65,1.58,.65s1.14-.22,1.58-.65l6.57-6.57,6.57,6.57c.44,.44,1.01,.65,1.58,.65s1.14-.22,1.58-.65c.87-.87,.87-2.29,0-3.16l-6.57-6.57,6.57-6.57c.87-.87,.87-2.29,0-3.16Z"/></g><path id="c" class="d" d="M32.5,3.08c-1.86,0-3.72,.71-5.14,2.13L10.27,22.29c-1.37,1.37-2.07,3.14-2.12,4.94-.03,.29-.06,.58-.06,.88v26.28c0,4.02,3.26,7.27,7.27,7.27H49.63c4.02,0,7.27-3.26,7.27-7.27V28.1c0-.3-.02-.59-.06-.88-.05-1.79-.75-3.57-2.12-4.94L37.64,5.21c-1.42-1.42-3.28-2.13-5.14-2.13h0Zm0,4.69c.69,0,1.34,.27,1.83,.76l17.08,17.08c.6,.6,.74,1.28,.75,1.75v.22l.03,.21c.02,.13,.02,.24,.02,.32v26.28c0,1.43-1.16,2.59-2.59,2.59H15.37c-1.43,0-2.59-1.16-2.59-2.59V28.1c0-.08,0-.18,.02-.32l.03-.21v-.22c.02-.47,.16-1.16,.76-1.75L30.67,8.52c.49-.49,1.14-.76,1.83-.76"/></svg>