<?xml version="1.0" encoding="UTF-8"?><svg id="a" xmlns="http://www.w3.org/2000/svg" viewBox="0 0 65 65"><defs><style>.b{fill:#231f20;}</style></defs><path class="b" d="M17.66,19.38H57.5c1.26,0,2.28-1.02,2.28-2.28s-1.02-2.28-2.28-2.28H17.66c-1.26,0-2.28,1.02-2.28,2.28s1.02,2.28,2.28,2.28Z"/><path class="b" d="M57.5,29.47H17.66c-1.26,0-2.28,1.02-2.28,2.28s1.02,2.28,2.28,2.28H57.5c1.26,0,2.28-1.02,2.28-2.28s-1.02-2.28-2.28-2.28Z"/><path class="b" d="M57.5,43.62H17.66c-1.26,0-2.28,1.02-2.28,2.28s1.02,2.28,2.28,2.28H57.5c1.26,0,2.28-1.02,2.28-2.28s-1.02-2.28-2.28-2.28Z"/><ellipse class="b" cx="8.84" cy="46.35" rx="3.62" ry="3.54"/><ellipse class="b" cx="8.84" cy="31.96" rx="3.62" ry="3.54"/><ellipse class="b" cx="8.84" cy="17.05" rx="3.62" ry="3.54"/></svg>