<?xml version="1.0" encoding="UTF-8"?><svg id="a" xmlns="http://www.w3.org/2000/svg" viewBox="0 0 65 65"><defs><style>.b{fill:#231f20;}</style></defs><path class="b" d="M61.83,25.42c-.42-1.29-1.51-2.21-2.86-2.41l-16.1-2.35-7.19-14.61c-.6-1.22-1.82-1.98-3.18-1.98s-2.58,.76-3.18,1.98l-7.2,14.62-16.1,2.35c-1.34,.2-2.44,1.12-2.86,2.41-.42,1.29-.08,2.68,.89,3.63l11.66,11.39-2.75,16.08c-.23,1.34,.31,2.66,1.41,3.46,.62,.45,1.35,.68,2.08,.68,.56,0,1.13-.14,1.66-.41l14.39-7.58,14.39,7.58c1.18,.62,2.66,.52,3.74-.27,1.1-.8,1.64-2.12,1.41-3.46l-2.75-16.08,11.66-11.39c.97-.95,1.31-2.34,.89-3.63Zm-41.78,15.34c.2-1.15-.18-2.31-1.02-3.13l-10.81-10.56,14.93-2.18c1.16-.17,2.15-.9,2.67-1.94l6.67-13.55,6.67,13.55c.51,1.05,1.51,1.77,2.67,1.94l14.93,2.18-10.81,10.57c-.83,.81-1.21,1.98-1.01,3.13l2.55,14.91-13.34-7.03c-1.02-.54-2.29-.54-3.31,0l-13.34,7.03,2.55-14.91Z"/></svg>