<?xml version="1.0" encoding="UTF-8"?><svg id="a" xmlns="http://www.w3.org/2000/svg" viewBox="0 0 87.14 65"><defs><style>.b{fill:#231f20;}</style></defs><path class="b" d="M55.65,29.6c2.24-2.72,3.49-6.1,3.55-9.66,.07-4.16-1.46-8.1-4.33-11.09-2.87-3-6.73-4.69-10.85-4.76h-.28c-8.38,0-15.31,6.87-15.46,15.31-.07,3.81,1.22,7.44,3.64,10.32-3.24,1.81-8.88,6.06-11.06,14.49-.78,3.03-.26,5.75,1.56,8.08,5.39,6.91,20.07,7.11,21.73,7.11h.35c11.37-.04,18.23-3.58,20.85-6.89,1.84-2.32,2.39-5.05,1.63-8.11-2.17-8.72-8-13.01-11.33-14.8Zm-11.95,1.49c-.05,0-.1,0-.16,0-3.01-.05-5.82-1.29-7.92-3.48-2.1-2.19-3.22-5.08-3.17-8.13,.11-6.18,5.17-11.22,11.29-11.22h.2c3.01,.05,5.82,1.29,7.92,3.48,2.1,2.19,3.22,5.08,3.17,8.13-.11,6.22-5.18,11.22-11.33,11.22Zm-8.44,1.62c2.44,1.62,5.26,2.5,8.21,2.55h.27c3.07,0,6.03-.9,8.58-2.63,1.69,.72,8.45,4.09,10.61,12.78,.44,1.79,.17,3.22-.85,4.51-2.88,3.62-11.46,5.41-18.53,5.3h-.1c-6.57-.1-14.9-1.85-17.74-5.5-1.01-1.29-1.26-2.71-.81-4.47,2.14-8.29,8.28-11.63,10.36-12.55Z"/><path class="b" d="M25.64,27.35c0-5.96-4.85-10.82-10.82-10.82s-10.82,4.85-10.82,10.82,4.85,10.82,10.82,10.82,10.82-4.85,10.82-10.82Zm-10.82,7.02c-3.87,0-7.02-3.15-7.02-7.02s3.15-7.02,7.02-7.02,7.02,3.15,7.02,7.02-3.15,7.02-7.02,7.02Z"/><path class="b" d="M73.01,16.53c-5.96,0-10.82,4.85-10.82,10.82s4.85,10.82,10.82,10.82,10.82-4.85,10.82-10.82-4.85-10.82-10.82-10.82Zm0,17.84c-3.87,0-7.02-3.15-7.02-7.02s3.15-7.02,7.02-7.02,7.02,3.15,7.02,7.02-3.15,7.02-7.02,7.02Z"/></svg>